PathFileType	4	(X/Y/Z)	C:/Users/opensim2020/Desktop/walking_exp_matlab/subject03_walking08_straight_01.trc	
DataRate	CameraRate	NumFrames	NumMarkers	Units	OrigDataRate	OrigDataStartFrame	OrigNumFrames	
100.00	100.00	5	51	mm	100.00	821	451	
Frame#	Time	LFHD			RFHD			LBHD			RBHD			C7			T10			CLAV			STRN			RBAK			LSHO			LUPA			LELB			LFRM			LWRA			LWRB			LFIN			RSHO			RUPA			RELB			RFRM			RWRA			RWRB			RFIN			LASI			RASI			LPSI			RPSI			LTHI			LKNE			LTIB			LANK			LHEE			LTOE			RTHI			RKNE			RTIB			RANK			RHEE			RTOE			*39			*40			*41			*42			*43			*44			*45			*46			*47			*48			*49			*50			
		X1	Y1	Z1	X2	Y2	Z2	X3	Y3	Z3	X4	Y4	Z4	X5	Y5	Z5	X6	Y6	Z6	X7	Y7	Z7	X8	Y8	Z8	X9	Y9	Z9	X10	Y10	Z10	X11	Y11	Z11	X12	Y12	Z12	X13	Y13	Z13	X14	Y14	Z14	X15	Y15	Z15	X16	Y16	Z16	X17	Y17	Z17	X18	Y18	Z18	X19	Y19	Z19	X20	Y20	Z20	X21	Y21	Z21	X22	Y22	Z22	X23	Y23	Z23	X24	Y24	Z24	X25	Y25	Z25	X26	Y26	Z26	X27	Y27	Z27	X28	Y28	Z28	X29	Y29	Z29	X30	Y30	Z30	X31	Y31	Z31	X32	Y32	Z32	X33	Y33	Z33	X34	Y34	Z34	X35	Y35	Z35	X36	Y36	Z36	X37	Y37	Z37	X38	Y38	Z38	X39	Y39	Z39	X40	Y40	Z40	X41	Y41	Z41	X42	Y42	Z42	X43	Y43	Z43	X44	Y44	Z44	X45	Y45	Z45	X46	Y46	Z46	X47	Y47	Z47	X48	Y48	Z48	X49	Y49	Z49	X50	Y50	Z50	X51	Y51	Z51	

339	3.380	-1057.26611	685.75085	1610.96973	-924.98755	678.59912	1619.64221	-1058.27478	555.00317	1576.85120	-927.70154	553.47375	1584.93384	-986.72321	513.70776	1416.67554	-981.24780	476.18738	1102.88989	-996.61169	633.24335	1337.81226	-1003.29083	675.19611	1173.13892	-881.17725	470.13943	1242.11060	-1147.93872	572.24316	1374.10632	-1219.82874	546.00439	1177.40552	-1234.11243	549.64178	1054.67468	-1233.85950	582.94336	928.78284	-1202.94592	611.82806	813.95691	-1252.26050	585.18768	815.95795	-1242.78394	609.00012	735.27454	-834.21399	606.97571	1363.10938	-753.82806	646.73846	1148.08362	-737.86005	683.96069	1042.72522	-734.29089	730.43030	913.93591	-770.71765	776.37677	825.61517	-723.32788	752.11157	817.03784	-730.10217	789.63135	753.78156	-1109.45081	635.27087	940.31641	-872.62054	649.20514	936.06146	-1053.72156	475.69119	958.10822	-903.86230	486.85049	970.47260	-1161.28516	652.30072	645.74243	-1131.50256	714.00836	477.63763	-1131.89111	662.21851	286.83957	-1094.02588	641.82782	77.80219	-1053.19263	601.82104	42.10542	-1083.37146	785.15881	40.27815	-838.20898	572.20813	643.41864	-875.80670	562.42200	464.16995	-873.35480	496.37579	283.93738	-925.58032	446.52518	73.15037	-975.12421	399.12842	44.02233	-944.74597	586.50134	31.18703	-1011.54675	605.43701	1679.04333																																	 
340	3.390	-1058.07373	693.10425	1610.03015	-925.82007	686.12445	1619.02759	-1058.82166	562.33020	1575.94958	-928.26910	560.97119	1584.29846	-986.79840	520.90247	1416.07520	-981.82562	483.12949	1102.28296	-996.89850	640.49756	1337.01831	-1003.45233	682.23633	1172.27820	-881.24927	477.51157	1241.74536	-1148.23364	579.20007	1373.22119	-1219.59546	551.67377	1176.42712	-1233.64148	554.73462	1053.61938	-1233.29163	587.48633	927.54187	-1202.16321	615.75317	812.66199	-1251.35193	588.91425	814.69867	-1241.91711	612.54767	734.01154	-834.56274	614.46631	1362.52759	-753.91650	655.37830	1147.91284	-738.06024	693.18127	1042.81494	-735.15491	741.19116	914.59070	-772.34839	787.99481	827.04108	-724.80933	764.25873	817.94690	-732.15796	802.78375	755.44318	-1109.64734	642.43469	939.30011	-872.74829	655.66431	935.41229	-1054.51758	482.72522	957.34180	-904.54608	493.28326	970.01416	-1160.91541	658.55231	644.53271	-1129.90894	722.13385	477.30859	-1131.90625	677.74304	285.35907	-1095.54395	665.98419	75.33656	-1055.23022	626.56012	38.87387	-1083.01563	810.36572	40.44731	-838.24005	576.77405	643.12317	-875.54272	565.87299	463.87399	-873.30548	498.23553	284.07108	-925.37854	446.84976	73.73785	-975.10022	399.41458	44.75790	-944.67590	586.54657	31.14732	-1013.10748	613.30682	1679.04016																																	 
341	3.400	-1058.90686	700.51929	1609.10339	-926.64508	693.64008	1618.38892	-1059.41162	569.72937	1575.01306	-928.84186	568.56079	1583.67664	-987.00891	528.28998	1415.40027	-982.48676	490.16745	1101.59729	-997.23901	647.75861	1336.15686	-1003.69720	689.20294	1171.36084	-881.51788	484.64493	1241.13245	-1148.61475	586.34668	1372.37109	-1219.35608	557.59814	1175.45667	-1233.31726	559.90509	1052.59167	-1232.55249	591.98822	926.27008	-1201.36206	619.74786	811.31067	-1250.23010	592.55927	813.23639	-1240.98010	615.92688	732.63977	-834.92303	621.88104	1361.83533	-753.93243	663.79028	1147.66052	-738.33923	702.29022	1042.81653	-736.15784	751.78296	915.18085	-774.06171	799.35950	828.38654	-726.36829	776.15845	818.75403	-734.23444	815.59418	756.85577	-1109.87402	649.57007	938.33899	-872.92651	662.17920	934.77264	-1055.23328	489.76355	956.59454	-905.26093	499.86069	969.54950	-1160.60034	664.69672	643.28943	-1128.64026	729.80707	476.88300	-1131.90186	692.84576	284.12961	-1096.81274	689.68268	73.44581	-1057.02246	650.79791	36.54808	-1082.78784	835.01813	40.47339	-838.25507	581.39813	642.76617	-875.54352	569.27338	463.58246	-873.21411	500.18085	284.29169	-925.32568	447.06805	74.21583	-974.98584	399.37875	45.68399	-944.59741	586.58588	31.10795	-1013.11835	620.22742	1677.15381																																	 
342	3.410	-1059.75037	707.97357	1608.17639	-927.49463	701.30371	1617.71765	-1060.01807	577.15765	1574.09326	-929.48810	576.11267	1583.08618	-987.57788	535.86768	1414.69983	-983.15338	497.18262	1100.96704	-997.61798	655.14685	1335.35364	-1003.99097	696.37030	1170.45654	-881.82928	491.88815	1240.64917	-1149.04749	593.64636	1371.54419	-1219.23877	563.88580	1174.49207	-1232.73816	565.42798	1051.54724	-1231.92468	596.67633	925.00049	-1200.31140	623.88623	809.87329	-1249.23352	596.44574	811.94604	-1240.00171	619.35358	731.25519	-835.36169	629.45581	1361.13232	-754.41730	672.23553	1147.27783	-738.78864	711.28784	1042.72546	-737.24585	762.13953	915.65173	-775.79004	810.52313	829.65704	-728.00110	787.73340	819.47504	-736.50397	828.04602	758.28107	-1110.16638	656.88330	937.36682	-872.98267	668.68317	934.04767	-1056.01379	496.87265	955.87469	-905.96014	506.54523	968.97003	-1160.42773	670.87201	642.02808	-1127.33093	737.20721	476.35999	-1131.81116	707.43073	283.05331	-1097.95068	712.94324	72.24217	-1058.41797	674.92169	34.92364	-1082.54358	859.03528	40.56843	-838.30750	586.17798	642.40247	-875.58008	572.73279	463.32047	-873.21289	502.18213	284.50824	-925.35272	447.33374	74.70821	-974.95557	399.57635	46.55110	-944.44073	586.71155	31.10621	-1014.29102	627.90277	1676.58691																																	 
343	3.420	-1060.59082	715.47504	1607.23853	-928.36731	708.94543	1617.05505	-1060.64917	584.67944	1573.19958	-930.11334	583.74030	1582.40173	-987.84711	543.33423	1414.06433	-983.88568	504.32712	1100.35791	-998.05988	662.58197	1334.50269	-1004.31818	703.41547	1169.50781	-882.23138	499.18561	1240.26025	-1149.52380	601.14398	1370.72766	-1219.21008	570.49603	1173.62964	-1232.04224	571.28058	1050.48987	-1231.22705	601.56799	923.72186	-1199.72766	628.13434	808.60577	-1248.10400	600.35895	810.55176	-1238.95874	622.75488	729.83160	-835.80914	636.84009	1360.41382	-754.65100	680.45648	1146.83423	-739.32855	720.17188	1042.52161	-738.45990	772.30029	916.00854	-777.53632	821.44305	830.75183	-729.74213	799.01117	820.02545	-738.79297	840.10162	759.53821	-1110.41516	664.22083	936.37836	-873.32751	675.49432	933.41589	-1056.68042	504.04306	955.13708	-906.59625	513.18506	968.44293	-1160.39600	677.14716	640.84851	-1125.99548	744.03955	475.29691	-1131.61084	721.55371	282.06796	-1098.94727	735.33783	71.32078	-1059.66870	697.80920	34.24055	-1082.24951	882.34589	41.13752	-838.37714	591.01288	642.09363	-875.57007	576.42688	463.05887	-873.24274	504.24545	284.78159	-925.22534	447.69452	75.47549	-975.02911	399.78464	47.56290	-944.55402	586.65771	31.01383	-1014.80865	635.30798	1675.64648																																	 
